<svg width="139" height="48" viewBox="0 0 139 48" fill="none" xmlns="http://www.w3.org/2000/svg">
    <path opacity="0.2"
          d="M36.3327 31.3331L31.435 31.2394C30.2587 31.2162 29.1498 31.7141 28.4032 32.5927L25.2088 36.3524C19.5593 34.1627 14.7332 30.2587 11.4951 25.2101L14.7069 21.43C15.4535 20.5513 15.7508 19.3941 15.512 18.2675L14.524 13.6137C14.1208 11.7491 12.3675 10.48 10.4208 10.6598L7.11902 10.9647C4.96237 11.1639 3.33042 13.0846 3.65887 15.182C6.14298 31.0332 20.3543 42.5627 36.7256 42.0487C38.8943 41.9802 40.5263 40.0594 40.3314 37.9497L40.0331 34.7197C39.878 32.8322 38.281 31.3792 36.3327 31.3331Z"
          fill="#F9A825"/>
    <path d="M19.7515 11.4839L24.2453 11.0786L24.4867 13.7557L24.7417 13.7327C25.2601 12.5935 25.7938 11.7422 26.3427 11.1786C26.9129 10.6131 27.6548 10.2891 28.5684 10.2067C28.9509 10.1722 29.2734 10.1859 29.536 10.2479L29.4949 15.1354C28.9291 15.0365 28.4762 15.0024 28.1362 15.033C27.6475 15.0771 27.2206 15.212 26.8554 15.4377C26.5115 15.6615 26.2051 15.9462 25.9364 16.2917C25.6889 16.6354 25.3293 17.1605 24.8576 17.867L25.7257 27.492L21.232 27.8973L19.7515 11.4839Z"
          fill="#F9A825"/>
    <path d="M31.2137 10.45L35.7075 10.0447L35.9489 12.7218L36.2039 12.6988C36.7223 11.5597 37.256 10.7083 37.8049 10.1447C38.3751 9.57919 39.117 9.25523 40.0306 9.17282C40.4131 9.13832 40.7356 9.15207 40.9982 9.21406L40.9571 14.1015C40.3913 14.0026 39.9384 13.9685 39.5984 13.9992C39.1098 14.0432 38.6828 14.1781 38.3176 14.4039C37.9737 14.6277 37.6673 14.9123 37.3986 15.2579C37.1512 15.6015 36.7915 16.1266 36.3198 16.8332L37.1879 26.4581L32.6942 26.8634L31.2137 10.45Z"
          fill="#F9A825"/>
    <path d="M42.6759 9.41617L47.1697 9.01084L47.4112 11.688L47.6661 11.665C48.1846 10.5258 48.7182 9.67441 49.2671 9.11082C49.8373 8.54531 50.5792 8.22135 51.4928 8.13894C51.8753 8.10445 52.1978 8.1182 52.4605 8.18019L52.4194 13.0676C51.8535 12.9687 51.4006 12.9346 51.0607 12.9653C50.572 13.0094 50.145 13.1443 49.7798 13.37C49.4359 13.5938 49.1296 13.8785 48.8608 14.224C48.6134 14.5676 48.2538 15.0927 47.782 15.7993L48.6501 25.4242L44.1564 25.8295L42.6759 9.41617Z"
          fill="#F9A825"/>
    <path d="M57.4859 7.90095L62.6171 7.43849L62.9905 11.5817L57.8593 12.0442L57.4859 7.90095ZM56.7493 27.5343L59.8089 27.2586L59.0247 18.5578L55.9651 18.8336L55.6176 14.9772L63.171 14.2965L64.3027 26.8536L67.0436 26.6065L67.3911 30.4629L57.0969 31.3907L56.7493 27.5343Z"
          fill="#F9A825"/>
    <path d="M68.8898 13.781L73.288 13.3846L73.5436 16.2211C74.122 15.0338 74.8335 14.1343 75.678 13.5227C76.5225 12.9111 77.5397 12.5516 78.7295 12.4444C80.493 12.2855 81.922 12.6922 83.0163 13.6645C84.1088 14.6156 84.7393 16.0261 84.9078 17.8958L85.8902 28.7956L81.3964 29.2006L80.4772 19.002C80.4006 18.1521 80.1288 17.5126 79.6617 17.0834C79.1927 16.6331 78.597 16.4404 77.8746 16.5055C77.0247 16.5821 76.246 16.9736 75.5386 17.68C74.8311 18.3863 74.3196 19.2464 74.004 20.2601L74.8629 29.7895L70.3691 30.1945L68.8898 13.781Z"
          fill="#F9A825"/>
    <path d="M95.8582 35.1907C93.9672 35.3611 92.0967 35.2834 90.2466 34.9575L90.7509 30.9279C92.8443 31.339 94.5709 31.4833 95.9307 31.3607C97.0143 31.2631 97.8276 31.0184 98.3707 30.6267C98.9349 30.2332 99.3014 29.6646 99.47 28.9212C99.6599 28.1758 99.7195 27.1744 99.6491 25.917L99.5534 25.9256C99.0198 26.6591 98.3762 27.2419 97.6226 27.674C96.869 28.106 96.0248 28.3642 95.0899 28.4484C93.2201 28.617 91.6909 28.0479 90.5021 26.7414C89.3327 25.4116 88.635 23.4932 88.4091 20.986C88.1352 17.9477 88.702 15.5618 90.1094 13.8285C91.5381 12.0932 93.7079 11.0944 96.6188 10.8321C98.2973 10.6808 100.318 10.7558 102.679 11.057C103.116 15.4301 103.434 18.7215 103.634 20.9312C103.812 22.9072 103.935 24.3954 104.004 25.396C104.233 28.4169 103.671 30.738 102.318 32.3594C100.986 33.9788 98.8328 34.9226 95.8582 35.1907ZM95.9158 24.422C96.5745 24.3627 97.1792 24.0618 97.7301 23.5195C98.3022 22.9753 98.7818 22.236 99.1688 21.3014L98.5596 14.8983C97.8412 14.7703 97.1527 14.7359 96.494 14.7953C95.1554 14.9159 94.1748 15.4434 93.5522 16.3777C92.9508 17.3102 92.7248 18.605 92.8741 20.2623C92.9986 21.6434 93.3194 22.7069 93.8364 23.4528C94.3728 24.1756 95.0659 24.4986 95.9158 24.422Z"
          fill="#F9A825"/>
    <path d="M116.066 26.5579C113.41 26.7973 111.248 26.221 109.58 24.8291C107.934 23.4353 106.988 21.3785 106.743 18.6589C106.584 16.8954 106.775 15.3359 107.317 13.9805C107.857 12.6038 108.691 11.5112 109.817 10.7028C110.965 9.89251 112.346 9.41459 113.961 9.26905C116.341 9.05458 118.237 9.65479 119.65 11.0697C121.063 12.4846 121.899 14.6369 122.16 17.5265C122.204 18.0152 122.226 18.3773 122.225 18.613L111.389 19.5896C111.703 20.6965 112.269 21.513 113.088 22.039C113.905 22.5437 114.961 22.7377 116.257 22.6209C117.043 22.55 117.853 22.3807 118.685 22.1129C119.516 21.8238 120.235 21.4806 120.841 21.0832L121.899 24.6185C121.089 25.1413 120.175 25.5665 119.154 25.894C118.158 26.2409 117.128 26.4622 116.066 26.5579ZM117.65 15.6196C117.504 14.7117 117.12 14.018 116.499 13.5385C115.875 13.0378 115.085 12.8305 114.129 12.9167C113.216 12.999 112.485 13.3326 111.938 13.9174C111.412 14.5003 111.117 15.2659 111.053 16.2142L117.65 15.6196Z"
          fill="#F9A825"/>
    <path d="M124.853 8.73725L129.346 8.33224L129.588 11.0094L129.843 10.9864C130.361 9.84727 130.895 8.99592 131.444 8.43237C132.014 7.8669 132.756 7.543 133.67 7.46065C134.052 7.42618 134.375 7.43995 134.637 7.50196L134.596 12.3894C134.03 12.2905 133.577 12.2563 133.237 12.287C132.748 12.331 132.322 12.4659 131.956 12.6916C131.612 12.9153 131.306 13.2 131.037 13.5455C130.79 13.8891 130.43 14.4142 129.958 15.1207L130.826 24.7457L126.332 25.1507L124.853 8.73725Z"
          fill="#F9A825"/>
</svg>
